<?xml version="1.0" encoding="UTF-8"?>
<svg width="32px" height="32px" viewBox="0 0 32 32" version="1.1" xmlns="http://www.w3.org/2000/svg" xmlns:xlink="http://www.w3.org/1999/xlink">
    <title>Pay! Logotype Icons / White BG Color / Round / 32x32</title>
    <g id="V-4" stroke="none" stroke-width="1" fill="none" fill-rule="evenodd">
        <g id="Group-35">
            <g id="credit-copy" fill="#FFFFFF">
                <path d="M8.18316457,0.665933174 L8.8455205,0.56134947 C13.5857898,-0.18711649 18.4141725,-0.18711649 23.1545172,0.56134947 L23.8168731,0.665933174 C27.6873061,1.27705536 30.722922,4.31272406 31.3340668,8.18316457 L31.4386731,8.8455205 C32.187109,13.5857898 32.187109,18.4141725 31.4386731,23.1545172 L31.3340668,23.8168731 C30.722922,27.6873061 27.6873061,30.722922 23.8168731,31.3340668 L23.1545172,31.4386731 C18.4141725,32.187109 13.5857898,32.187109 8.8455205,31.4386731 L8.18316457,31.3340668 C4.31272406,30.722922 1.27705536,27.6873061 0.665933174,23.8168731 L0.56134947,23.1545172 C-0.18711649,18.4141725 -0.18711649,13.5857898 0.56134947,8.8455205 L0.665933174,8.18316457 C1.27705536,4.31272406 4.31272406,1.27705536 8.18316457,0.665933174 Z" id="Path"></path>
            </g>
            <g id="Group-34" transform="translate(3.333333, 10.666667)" fill="#008EFA">
                <g id="Group-33" transform="translate(21.467545, 0.215547)">
                    <path d="M1.88040178,0 L0.569745715,5.10170081 L1.65937207,5.10170081 C2.18664192,5.10170081 2.64713396,4.74016167 2.778911,4.22260019 L3.86578863,0 L1.88040178,0 Z" id="Fill-12"></path>
                    <path d="M1.22366705,5.82327132 C0.548289503,5.82327132 0,6.37901893 0,7.06341941 C0,7.74781989 0.548289503,8.30373139 1.22366705,8.30373139 C1.8988829,8.30373139 2.4471724,7.74781989 2.4471724,7.06341941 C2.4471724,6.37901893 1.8988829,5.82327132 1.22366705,5.82327132" id="Fill-14"></path>
                </g>
                <g id="Group">
                    <path d="M2.77178204,3.65416458 L2.08133464,3.65416458 L2.08133464,1.66873516 L2.77178204,1.66873516 C3.5363671,1.66873516 3.91849847,1.99969348 3.91849847,2.66144987 C3.91849847,3.32336652 3.5363671,3.65416458 2.77178204,3.65416458 M3.31347057,0 L0,0 L0,7.96303364 L2.08133464,7.96303364 L2.08133464,5.32273946 L3.31347057,5.32273946 C4.2123093,5.32273946 4.901145,5.09050769 5.37901067,4.6257236 C5.85687633,4.16109978 6.09588975,3.50623502 6.09588975,2.66144987 C6.09588975,1.81650444 5.85687633,1.16179996 5.37901067,0.697015866 C4.901145,0.232392045 4.2123093,0 3.31347057,0" id="Fill-20"></path>
                    <path d="M10.8484209,5.7346183 C10.7808912,5.88254786 10.6924095,6.01284767 10.5828147,6.12551775 C10.4730587,6.23818782 10.3420284,6.32601599 10.189885,6.38932279 C10.0375804,6.45278986 9.87657273,6.48452339 9.70686192,6.48452339 C9.52957618,6.48452339 9.36502277,6.45278986 9.21287937,6.38932279 C9.0605748,6.32601599 8.92970568,6.23818782 8.81994969,6.12551775 C8.7101937,6.01284767 8.62348485,5.88078488 8.55966198,5.72932938 C8.49600028,5.57803414 8.46408885,5.41439809 8.46408885,5.23826095 C8.46408885,5.06933597 8.49600028,4.91259154 8.55966198,4.7683482 C8.62348485,4.62410486 8.7101937,4.49556802 8.81994969,4.38289795 C8.92970568,4.27038814 9.0605748,4.18223944 9.21287937,4.11877237 C9.36502277,4.05546557 9.52957618,4.02373204 9.70686192,4.02373204 C9.87657273,4.02373204 10.0375804,4.05546557 10.189885,4.11877237 C10.3420284,4.18223944 10.4730587,4.27038814 10.5828147,4.38289795 C10.6924095,4.49556802 10.7808912,4.62747054 10.8484209,4.77892605 C10.9156284,4.93038155 10.9491515,5.09049166 10.9491515,5.25941664 C10.9491515,5.42834161 10.9156284,5.58684901 10.8484209,5.7346183 L10.8484209,5.7346183 Z M10.8854898,3.08390655 C10.4393744,2.61223083 9.87657273,2.37631284 9.19708482,2.37631284 C8.793518,2.37631284 8.42508598,2.45196046 8.09243346,2.60325569 C7.75961977,2.75487147 7.47290037,2.9608189 7.23227526,3.22125826 C6.99132782,3.48169762 6.80372726,3.78605107 6.66931244,4.13463914 C6.53473644,4.48306693 6.46752902,4.85104772 6.46752902,5.23826095 C6.46752902,5.65384203 6.53667046,6.03752931 6.67446984,6.38932279 C6.81275272,6.7414368 7.00567184,7.04787376 7.25354955,7.30831312 C7.50110492,7.56875249 7.7915312,7.77117397 8.12434489,7.91541731 C8.45683625,8.05966065 8.82172255,8.13194259 9.21819794,8.13194259 C9.91912131,8.13194259 10.4748315,7.87502917 10.8854898,7.36088181 L10.8854898,7.96301761 L12.8183879,7.96301761 L12.8183879,2.54523782 L10.8854898,2.54523782 L10.8854898,3.08390655 Z" id="Fill-22"></path>
                    <polygon id="Fill-24" points="17.0450412 5.32277152 15.5900088 2.54512563 13.3599153 2.54512563 15.9935756 7.22373845 14.1351375 10.6666667 16.2910933 10.6666667 20.6666667 2.54512563 18.4575251 2.54512563"></polygon>
                </g>
            </g>
        </g>
    </g>
</svg>